<?xml version="1.0" standalone="no"?>
<!DOCTYPE svg PUBLIC "-//W3C//DTD SVG 20010904//EN"
 "http://www.w3.org/TR/2001/REC-SVG-20010904/DTD/svg10.dtd">
<svg version="1.0" xmlns="http://www.w3.org/2000/svg"
 width="200.000000pt" height="200.000000pt" viewBox="0 0 200.000000 200.000000"
 preserveAspectRatio="xMidYMid meet">
<metadata>
Created by potrace 1.11, written by Peter Selinger 2001-2013
</metadata>
<g transform="translate(0.000000,200.000000) scale(0.100000,-0.100000)"
fill="#000000" stroke="none">
<path d="M0 1000 l0 -1000 1000 0 1000 0 0 1000 0 1000 -1000 0 -1000 0 0
-1000z m476 49 c18 -15 18 -68 0 -75 -12 -4 -10 -13 10 -41 13 -20 24 -42 24
-49 0 -28 -37 -13 -61 24 -32 49 -53 49 -57 -1 -3 -33 -6 -38 -25 -35 -20 3
-22 9 -25 87 -4 114 -3 115 64 108 30 -3 62 -11 70 -18z m494 6 c0 -9 -9 -15
-25 -15 -16 0 -25 6 -25 15 0 9 9 15 25 15 16 0 25 -6 25 -15z m-295 -55 c27
-30 25 -88 -4 -111 -31 -25 -86 -24 -111 1 -29 29 -27 94 2 114 32 23 91 20
113 -4z m196 -8 c5 -14 9 -46 7 -71 -3 -39 -7 -47 -25 -49 -20 -3 -22 1 -25
55 -3 50 -6 58 -23 58 -17 0 -21 -8 -25 -55 -4 -48 -8 -55 -27 -58 -22 -3 -23
0 -23 71 l0 75 66 0 c61 0 66 -1 75 -26z m97 -44 c-3 -67 -5 -73 -25 -76 -22
-3 -23 0 -23 72 0 75 0 76 25 76 26 0 26 -1 23 -72z m179 42 c7 -14 12 -45 11
-70 -3 -38 -7 -46 -25 -48 -20 -3 -22 1 -25 55 -3 50 -6 58 -23 58 -17 0 -21
-8 -25 -55 -4 -48 -8 -55 -27 -58 -22 -3 -23 0 -23 72 l0 75 62 -2 c55 -2 64
-5 75 -27z"/>
<path d="M390 1004 c0 -21 4 -25 23 -22 14 2 23 11 25 26 3 18 -1 22 -22 22
-21 0 -26 -5 -26 -26z"/>
<path d="M597 983 c-13 -13 -7 -71 8 -77 18 -6 45 19 45 43 0 30 -35 53 -53
34z"/>
</g>
</svg>
